# AST/ASF file generated using VICON BodyLanguage
# -----------------------------------------------
:version 1.10
:name VICON
:units
  mass 1.0
  length 0.45
  angle deg
:documentation
   .ast/.asf automatically generated from VICON data using
   VICON BodyBuilder and BodyLanguage model FoxedUp or BRILLIANT.MOD
:root
   order TX TY TZ RX RY RZ
   axis XYZ
   position 0 0 0  
   orientation 0 0 0 
:bonedata
  begin
     id 1 
     name lhipjoint
     direction 0.588788 -0.725889 0.355548 
     length 2.37778 
     axis 0 0 0  XYZ
  end
  begin
     id 2 
     name lfemur
     direction 0.34202 -0.939693 0  
     length 6.86393  
     axis 0 0 20  XYZ
    dof rx ry rz
    limits (-160.0 20.0)
           (-70.0 70.0)
           (-60.0 70.0)
  end
  begin
     id 3 
     name ltibia
     direction 0.34202 -0.939693 0   
     length 7.32851   
     axis 0 0 20   XYZ
    dof rx
    limits (-10.0 170.0)
  end
  begin
     id 4 
     name lfoot
     direction 0.0626533 -0.172138 0.983078   
     length 1.98929   
     axis -90 7.62852e-016 20   XYZ
    dof rx rz
    limits (-45.0 90.0)
           (-70.0 20.0)
  end
  begin
     id 5 
     name ltoes
     direction 1.53647e-011 -4.21734e-011 1   
     length 1.00479   
     axis -90 7.62852e-016 20   XYZ
    dof rx
    limits (-90.0 20.0)
  end
  begin
     id 6 
     name rhipjoint
     direction -0.59141 -0.724168 0.354705   
     length 2.38343  
     axis 0 0 0  XYZ 
  end
  begin
     id 7 
     name rfemur
     direction -0.34202 -0.939693 0   
     length 6.95589   
     axis 0 0 -20   XYZ
    dof rx ry rz
    limits (-160.0 20.0)
           (-70.0 70.0)
           (-70.0 60.0)
  end
  begin
     id 8 
     name rtibia
     direction -0.34202 -0.939693 0   
     length 7.32327   
     axis 0 0 -20   XYZ
    dof rx
    limits (-10.0 170.0)
 end
 begin
     id 9 
     name rfoot
     direction -0.0660461 -0.18146 0.981178   
     length 1.85272  
     axis -90 -7.62852e-016 -20   XYZ
    dof rx rz
    limits (-45.0 90.0)
           (-20.0 70.0)
  end
  begin
     id 10 
     name rtoes
     direction -1.53586e-011 -4.21988e-011 1   
     length 0.93746   
     axis -90 -7.62852e-016 -20   XYZ
    dof rx
    limits (-90.0 20.0)
  end
  begin
     id 11 
     name lowerback
     direction -0.0107982 0.991059 0.13299   
     length 1.98691   
     axis 0 0 0   XYZ
    dof rx ry rz
    limits (-20.0 45.0)
           (-30.0 30.0)
           (-30.0 30.0)
  end
  begin
     id 12 
     name upperback
     direction 0.0076296 0.999916 0.0104576   
     length 1.99501   
     axis 0 0 0   XYZ
    dof rx ry rz
    limits (-20.0 45.0)
           (-30.0 30.0)
           (-30.0 30.0)
  end
  begin
     id 13 
     name thorax
     direction 0.01176 0.998615 -0.0512909   
     length 2.03144   
     axis 0 0 0   XYZ
    dof rx ry rz
    limits (-20.0 45.0)
           (-30.0 30.0)
           (-30.0 30.0)
  end
  begin
     id 14 
     name lowerneck
     direction -0.0171909 0.999644 0.0204011   
     length 1.71818   
     axis 0 0 0   XYZ
    dof rx ry rz
    limits (-20.0 45.0)
           (-30.0 30.0)
           (-30.0 30.0)
  end
  begin
     id 15 
     name upperneck
     direction 0.0250902 0.997482 -0.0663316   
     length 1.66199   
     axis 0 0 0   XYZ
    dof rx ry rz
    limits (-20.0 45.0)
           (-30.0 30.0)
           (-30.0 30.0)
  end
  begin
     id 16
     name head
     direction 0.00881535 0.99956 -0.0283365  
     length 1.81545  
     axis 0 0 0   XYZ
    dof rx ry rz
    limits (-20.0 45.0)
           (-30.0 30.0)
           (-30.0 30.0)
  end
  begin
     id 17 
     name lclavicle
     direction 0.840411 0.486876 -0.238035  
     length 3.30409  
     axis 0 0 0   XYZ
    dof ry rz
    limits (-20.0 10.0)
           (0.0 20.0)
  end
  begin
     id 18 
     name lhumerus
     direction 1 -4.48977e-011 -5.16239e-027   
     length 4.62672   
     axis 180 -30 -90   XYZ
    dof rx ry rz
    limits (-60.0 90.0)
           (-90.0 90.0)
           (-90.0 90.0)
  end
  begin
     id 19
     name lradius
     direction 1 -4.48977e-011 -8.71171e-027   
     length 3.11018   
     axis 180 -30 -90   XYZ
    dof rx
    limits (-10.0 170.0)
  end
  begin
     id 20
     name lwrist
     direction 1 -4.48912e-011 -1.03764e-026   
     length 1.55509   
     axis 9.09556e-015 90 90   XYZ
    dof ry
    limits (-180.0 0.0)
 end
  begin
     id 21 
     name lhand
     direction 1 -4.49072e-011 -2.07528e-026   
     length 0.743834   
     axis 1.3242e-014 90 90   XYZ
    dof rx rz
    limits (-90.0 90.0)
           (-45.0 45.0)
  end
  begin
     id 22 
     name lfingers
     direction 1 -4.48909e-011 -4.15056e-026   
     length 0.599698   
     axis 2.64841e-014 90 90   XYZ
    dof rx
    limits (0.0 90.0)
  end
  begin
     id 23
     name lthumb
     direction 0.707107 -6.35013e-011 0.707107   
     length 0.86105   
     axis -90 45 2.85299e-015   XYZ
    dof rx rz
    limits (-45.0 45.0)
           (-45.0 45.0)
  end
  begin
     id 24 
     name rclavicle
     direction -0.835208 0.500237 -0.228452   
     length 3.2716  
     axis 0 0 0   XYZ 
    dof ry rz
    limits (-10.0 20.0)
           (-20.0 0.0)
  end
  begin
     id 25 
     name rhumerus
     direction -1 -4.48978e-011 -5.1953e-028  
     length 4.55919   
     axis 180 30 90   XYZ
    dof rx ry rz
    limits (-90.0 60.0)
           (-90.0 90.0)
           (-90.0 90.0)
  end
  begin
     id 26 
     name rradius
     direction -1 -4.48961e-011 -5.99546e-027   
     length 3.22748   
     axis 180 30 90   XYZ
    dof rx
    limits (-10.0 170.0)
  end
  begin
     id 27 
     name rwrist
     direction -1 -4.48986e-011 -1.03764e-026   
     length 1.61374   
     axis 9.09556e-015 -90 -90   XYZ
    dof ry
    limits (-180.0 0.0)
  end
  begin
     id 28
     name rhand
     direction -1 -4.4899e-011 -2.07528e-026   
     length 0.700882   
     axis 1.3242e-014 -90 -90   XYZ
    dof rx rz
    limits (-90.0 90.0)
           (-45.0 45.0)
  end
  begin
     id 29
     name rfingers
     direction -1 -4.48991e-011 -4.15056e-026   
     length 0.565069   
     axis 2.64841e-014 -90 -90   XYZ
    dof rx
    limits (0.0 90.0)
  end
  begin
     id 30
     name rthumb
     direction -0.707107 -6.34804e-011 0.707107   
     length 0.811329   
     axis -90 -45 -2.85299e-015   XYZ
    dof rx rz
    limits (-45.0 45.0)
           (-45.0 45.0)
  end
:hierarchy
  begin
    root lhipjoint rhipjoint lowerback
    lhipjoint lfemur
    lfemur ltibia
    ltibia lfoot
    lfoot ltoes
    rhipjoint rfemur
    rfemur rtibia
    rtibia rfoot
    rfoot rtoes
    lowerback upperback
    upperback thorax
    thorax lowerneck lclavicle rclavicle
    lowerneck upperneck
    upperneck head
    lclavicle lhumerus
    lhumerus lradius
    lradius lwrist
    lwrist lhand lthumb
    lhand lfingers
    rclavicle rhumerus
    rhumerus rradius
    rradius rwrist
    rwrist rhand rthumb
    rhand rfingers
  end

#!OML:ASF F:\VICON\USERDATA\INSTALL\SteveWalk\SteveWalk.ASF
:FULLY-SPECIFIED
:DEGREES
112
root -0.397162 15.9906 -18.6525 16.3868 10.4617 3.65962
lowerback -13.8825 -4.15896 -2.76172
upperback -4.24994 -5.16289 1.23415
thorax 3.62881 -2.55785 1.96789
lowerneck -5.54228 -2.04388 0.141256
upperneck 10.3005 -2.66531 -0.959015
head 4.36731 -1.35648 -0.494242
rclavicle 6.36111e-015 1.59028e-014
rhumerus -86.9653 -39.2203 -8.30315
rradius 11.2509
rwrist 52.9896
rhand -13.1706 -34.0684
rfingers 7.12502
rthumb 12.9288 -63.6479
lclavicle 6.36111e-015 1.59028e-014
lhumerus -25.1371 -4.96741 83.1482
lradius 54.8597
lwrist 6.75414
lhand -22.5097 -21.5541
lfingers 7.12502
lthumb 3.91659 8.38966
rfemur -49.1898 -7.23813 21.5355
rtibia 24.9873
rfoot -9.16844 -0.714707
rtoes -36.233
lfemur 4.90802 -0.991481 -21.8015
ltibia 18.5616
lfoot -10.9986 -15.7511
ltoes 1.42115
113
root -0.400708 15.9967 -18.3999 16.6917 9.92423 3.50399
lowerback -14.1827 -3.98028 -2.4578
upperback -4.42179 -4.96809 1.41536
thorax 3.58994 -2.458 2.00998
lowerneck -5.91941 -1.8453 0.135268
upperneck 10.4958 -2.35388 -1.34536
head 4.51225 -1.22318 -0.614155
rclavicle -9.7156e-015 3.57812e-015
rhumerus -87.842 -39.494 -6.49774
rradius 11.1514
rwrist 54.1727
rhand -13.8645 -34.254
rfingers 7.12502
rthumb 12.2598 -63.8747
lclavicle -9.7156e-015 3.57812e-015
lhumerus -25.7993 -4.42971 83.2585
lradius 55.1357
lwrist 6.85206
lhand -22.4819 -21.7889
lfingers 7.12502
lthumb 3.94345 8.15431
rfemur -49.809 -6.22343 21.3103
rtibia 26.5755
rfoot -7.51225 -0.0140955
rtoes -31.342
lfemur 4.74957 -1.31153 -21.7086
ltibia 19.611
lfoot -13.0686 -14.2342
ltoes -18.3768
114
root -0.390848 15.9892 -18.1674 17.5348 8.00951 3.03078
lowerback -14.9298 -3.3112 -1.79461
upperback -4.76765 -4.17041 1.59799
thorax 3.54989 -2.05757 1.94464
lowerneck -6.07454 -1.6586 0.198662
upperneck 10.4487 -2.04728 -1.90601
head 4.52338 -1.09855 -0.799255
rclavicle 2.12824e-014 2.38542e-015
rhumerus -87.5768 -39.665 -6.38439
rradius 11.094
rwrist 54.1597
rhand -14.8037 -34.4512
rfingers 7.12502
rthumb 11.3541 -64.1238
lclavicle 2.12824e-014 2.38542e-015
lhumerus -26.6078 -3.7386 83.4354
lradius 55.3615
lwrist 6.97427
lhand -22.5338 -21.9996
lfingers 7.12502
lthumb 3.8933 7.94454
rfemur -51.2012 -4.63785 21.4515
rtibia 27.7461
rfoot -6.11208 1.79929
rtoes -26.0968
lfemur 3.27127 -0.571645 -21.968
ltibia 21.689
lfoot -16.5052 -11.6199
ltoes -35.1822
115
root -0.384592 16.0054 -17.9091 17.688 7.69673 2.72259
lowerback -15.1248 -3.13073 -1.18194
upperback -4.96487 -4.02467 1.77024
thorax 3.41129 -1.98273 1.80455
lowerneck -5.91378 -1.59107 0.191417
upperneck 10.3145 -1.90781 -2.36794
head 4.44005 -1.05247 -0.942054
rclavicle -2.03009e-014 4.77083e-015
rhumerus -88.9693 -39.8882 -3.84627
rradius 11.0185
rwrist 55.9926
rhand -14.3674 -34.6163
rfingers 7.12502
rthumb 11.7749 -64.2653
lclavicle -2.03009e-014 4.77083e-015
lhumerus -27.5785 -3.14849 83.6357
lradius 55.4333
lwrist 7.04762
lhand -22.6481 -21.8177
lfingers 7.12502
lthumb 3.78294 8.12845
rfemur -51.2517 -3.77241 21.262
rtibia 28.9631
rfoot -5.06985 1.98953
rtoes -25.306
lfemur 2.09606 -0.581937 -21.7292
ltibia 24.2738
lfoot -12.9494 -13.1619
ltoes -33.7333
116
root -0.37968 16.0241 -17.6627 17.8852 7.35119 2.34034
lowerback -15.1477 -2.90021 -0.50453
upperback -5.25275 -3.82243 1.95274
thorax 3.08133 -1.88085 1.6598
lowerneck -5.74804 -1.56776 0.168911
upperneck 10.2402 -1.82885 -2.81238
head 4.37799 -1.03545 -1.08031
rclavicle -1.76608e-014 1.66979e-014
rhumerus -90.1384 -40.0514 -1.75173
rradius 11.0069
rwrist 57.4234
rhand -13.9171 -34.9483
rfingers 7.12502
rthumb 12.209 -64.572
lclavicle -1.76608e-014 1.66979e-014
lhumerus -28.6037 -2.57649 83.8156
lradius 55.3465
lwrist 7.06343
lhand -22.8809 -21.907
lfingers 7.12502
lthumb 3.55812 8.04305
rfemur -51.2521 -2.84672 21.193
rtibia 30.1551
rfoot -4.2357 1.76252
rtoes -25.1093
lfemur 0.579735 -0.563772 -21.389
ltibia 27.4732
lfoot -7.59849 -14.5114
ltoes -26.9067
117
root -0.368768 16.0019 -17.4255 18.0181 6.95161 1.9556
lowerback -15.2633 -2.65319 0.251611
upperback -5.3022 -3.61277 2.10577
thorax 3.04789 -1.779 1.42901
lowerneck -5.99196 -1.46145 0.220465
upperneck 10.1297 -1.64544 -3.24446
head 4.38832 -0.965249 -1.22791
rclavicle 2.92959e-014 -1.43125e-014
rhumerus -89.6069 -40.5016 -2.28824
rradius 11.0461
rwrist 57.0399
rhand -14.0615 -35.4611
rfingers 7.12502
rthumb 12.0698 -65.093
lclavicle 2.92959e-014 -1.43125e-014
lhumerus -29.3246 -2.00032 83.9335
lradius 55.2328
lwrist 7.16585
lhand -22.9165 -22.157
lfingers 7.12502
lthumb 3.52372 7.79357
rfemur -51.4257 -2.15704 21.3498
rtibia 31.6053
rfoot -3.88969 1.34709
rtoes -24.2745
lfemur -0.434305 -0.989725 -21.0049
ltibia 30.732
lfoot -7.56306 -14.8718
ltoes -27.7908
118
root -0.356822 16.0168 -17.1795 18.0325 6.56518 1.72667
lowerback -15.3514 -2.42011 0.880604
upperback -5.2329 -3.40362 2.17053
thorax 3.13018 -1.67736 1.17518
lowerneck -6.30286 -1.33384 0.291289
upperneck 9.94733 -1.44633 -3.58983
head 4.38821 -0.882323 -1.34864
rclavicle 2.04997e-015 3.97569e-015
rhumerus -88.4594 -40.9504 -3.89479
rradius 11.1706
rwrist 55.9935
rhand -14.1783 -35.6497
rfingers 7.12502
rthumb 11.9572 -65.2882
lclavicle 2.04997e-015 3.97569e-015
lhumerus -29.8963 -1.58987 84.031
lradius 55.0044
lwrist 7.28161
lhand -22.8074 -21.8785
lfingers 7.12502
lthumb 3.62911 8.07031
rfemur -51.3846 -1.89973 21.6708
rtibia 33.0566
rfoot -4.25129 1.2724
rtoes -24.2505
lfemur -2.01716 -0.554107 -20.837
ltibia 34.0827
lfoot 0.938878 -14.7657
ltoes -15.4489
119
root -0.347672 16.0284 -16.9396 18.0785 6.0401 1.58571
lowerback -15.3545 -2.17016 1.32639
upperback -5.23455 -3.14268 2.22757
thorax 3.10482 -1.54967 1.03072
lowerneck -6.49684 -1.23058 0.213434
upperneck 9.7198 -1.27964 -3.81735
head 4.34926 -0.813904 -1.40164
rclavicle 2.74199e-014 -3.97569e-015
rhumerus -86.738 -41.2035 -6.34195
rradius 11.3937
rwrist 54.2948
rhand -14.371 -35.3841
rfingers 7.12502
rthumb 11.7713 -65.0333
lclavicle 2.74199e-014 -3.97569e-015
lhumerus -30.5725 -1.28267 84.1825
lradius 54.6791
lwrist 7.50015
lhand -23.0757 -21.4597
lfingers 7.12502
lthumb 3.36995 8.49337
rfemur -51.4378 -1.67692 21.985
rtibia 34.5403
rfoot -5.03788 2.09031
rtoes -21.0957
lfemur -3.64313 -0.107434 -20.7627
ltibia 37.2916
lfoot 5.95733 -14.8324
ltoes -11.7357
120
root -0.3404 16.0414 -16.7061 18.1153 5.68021 1.48527
lowerback -15.2235 -1.9671 1.69321
upperback -5.2745 -2.92639 2.2788
thorax 2.97444 -1.44482 0.921816
lowerneck -6.7191 -1.16568 0.0918972
upperneck 9.59515 -1.16858 -3.93068
head 4.35245 -0.76998 -1.41321
rclavicle 2.40778e-014 -7.95139e-016
rhumerus -86.4624 -41.7513 -6.51118
rradius 11.4736
rwrist 54.2385
rhand -14.5032 -35.1184
rfingers 7.12502
rthumb 11.6439 -64.7749
lclavicle 2.40778e-014 -7.95139e-016
lhumerus -31.4211 -1.08899 84.3719
lradius 54.5018
lwrist 7.80678
lhand -23.3992 -21.0968
lfingers 7.12502
lthumb 3.0576 8.86101
rfemur -51.2861 -1.40156 22.154
rtibia 35.7695
rfoot -5.73252 3.21787
rtoes -15.9261
lfemur -5.40317 0.0893179 -20.6681
ltibia 40.5787
lfoot 10.263 -14.8152
ltoes -9.04007
121
root -0.338006 16.0558 -16.4731 18.0292 5.61669 1.42321
lowerback -14.9745 -1.84588 1.95659
upperback -5.3103 -2.79616 2.29606
thorax 2.79082 -1.3831 0.823466
lowerneck -6.75107 -1.14883 0.208784
upperneck 9.4329 -1.14092 -4.14834
head 4.30059 -0.761293 -1.50438
rclavicle 1.56791e-014 -5.56597e-015
rhumerus -85.8531 -42.2277 -7.35508
rradius 11.5271
rwrist 53.6109
rhand -14.4259 -35.2268
rfingers 7.12502
rthumb 11.7184 -64.879
lclavicle 1.56791e-014 -5.56597e-015
lhumerus -32.1815 -1.02389 84.5457
lradius 54.1908
lwrist 8.09531
lhand -23.3483 -20.5605
lfingers 7.12502
lthumb 3.10676 9.39662
rfemur -50.8375 -1.34085 22.3415
rtibia 36.8817
rfoot -6.48412 3.73908
rtoes -12.0769
lfemur -6.99745 0.00304441 -20.4968
ltibia 43.7776
lfoot 13.7196 -15.0507
ltoes -9.27839
122
root -0.343194 16.0717 -16.2467 17.8238 5.57373 1.28532
lowerback -14.5962 -1.75525 2.14893
upperback -5.24739 -2.69501 2.34513
thorax 2.64763 -1.33507 0.794529
lowerneck -6.92737 -1.12095 0.469824
upperneck 9.16068 -1.10897 -4.4482
head 4.23848 -0.74944 -1.64961
rclavicle 3.50606e-014 5.56597e-015
rhumerus -83.9275 -42.6534 -10.1489
rradius 11.6297
rwrist 51.6524
rhand -14.4455 -35.6315
rfingers 7.12502
rthumb 11.6995 -65.2848
lclavicle 3.50606e-014 5.56597e-015
lhumerus -32.6206 -0.918519 84.6722
lradius 53.5801
lwrist 8.29266
lhand -23.2809 -20.2339
lfingers 7.12502
lthumb 3.17183 9.72226
rfemur -50.199 -1.28424 22.6521
rtibia 37.8486
rfoot -7.53472 3.60408
rtoes -8.26482
lfemur -8.46017 0.00554625 -20.2065
ltibia 46.892
lfoot 16.6031 -15.5584
ltoes -12.3664
123
root -0.352723 16.0889 -16.0228 17.553 5.65576 1.18504
lowerback -14.2953 -1.71909 2.23057
upperback -5.13261 -2.65378 2.40124
thorax 2.60574 -1.3149 0.821106
lowerneck -6.91346 -1.08291 0.645239
upperneck 8.76486 -1.0708 -4.65304
head 4.09482 -0.729687 -1.74103
rclavicle 1.20016e-014 3.18055e-015
rhumerus -83.8268 -43.547 -10.1224
rradius 11.5929
rwrist 51.8306
rhand -14.4472 -35.9424
rfingers 7.12502
rthumb 11.6979 -65.5958
lclavicle 1.20016e-014 3.18055e-015
lhumerus -33.1404 -0.788149 84.8465
lradius 52.9259
lwrist 8.32356
lhand -23.481 -20.2946
lfingers 7.12502
lthumb 2.97858 9.6643
rfemur -49.3653 -1.27789 22.9285
rtibia 38.5611
rfoot -7.98712 3.0472
rtoes -20.2032
lfemur -9.85133 -0.0590802 -19.8983
ltibia 49.9486
lfoot 19.4988 -15.2511
ltoes -15.4127
124
root -0.361363 16.1042 -15.7994 17.3471 5.72194 1.11784
lowerback -14.1635 -1.65717 2.24806
upperback -5.06394 -2.57338 2.44703
thorax 2.60842 -1.27442 0.874677
lowerneck -6.77338 -1.09387 0.520395
upperneck 8.67618 -1.08747 -4.53644
head 4.03463 -0.734148 -1.67563
rclavicle -1.85615e-014 9.54166e-015
rhumerus -82.5021 -44.0687 -11.9321
rradius 11.6675
rwrist 50.5747
rhand -14.3275 -36.1072
rfingers 7.12502
rthumb 11.8133 -65.754
lclavicle -1.85615e-014 9.54166e-015
lhumerus -33.6443 -0.753222 85.1426
lradius 52.105
lwrist 8.40681
lhand -23.7746 -20.1658
lfingers 7.12502
lthumb 2.69502 9.79689
rfemur -48.5279 -1.37645 23.195
rtibia 39.0746
rfoot -9.06879 3.17084
rtoes -16.057
lfemur -11.1718 -0.180228 -19.6519
ltibia 52.864
lfoot 22.0246 -13.4185
ltoes -15.9416
125
root -0.368441 16.1416 -15.574 17.2093 5.69586 0.947279
lowerback -13.9755 -1.5251 2.36253
upperback -5.01708 -2.41037 2.49542
thorax 2.55352 -1.19406 0.891345
lowerneck -6.95719 -1.13226 0.330076
upperneck 8.877 -1.13736 -4.25221
head 4.14202 -0.755877 -1.55422
rclavicle 2.5519e-014 2.70347e-014
rhumerus -79.0748 -44.0695 -16.8419
rradius 11.942
rwrist 47.167
rhand -14.3133 -36.1826
rfingers 7.12502
rthumb 11.827 -65.8286
lclavicle 2.5519e-014 2.70347e-014
lhumerus -33.9013 -0.846902 85.4467
lradius 50.9962
lwrist 8.61696
lhand -23.7111 -20.0219
lfingers 7.12502
lthumb 2.75635 9.94008
rfemur -47.617 -1.45145 23.5453
rtibia 39.3595
rfoot -10.2372 3.5165
rtoes -10.2567
lfemur -12.9504 0.0176774 -19.4087
ltibia 55.735
lfoot 22.0255 -13.9144
ltoes -22.8264
126
root -0.372492 16.1657 -15.3552 17.1813 5.75911 0.611
lowerback -13.9282 -1.36307 2.71887
upperback -4.97937 -2.24444 2.54878
thorax 2.55528 -1.11284 0.773693
lowerneck -6.94354 -1.19165 0.360147
upperneck 8.6675 -1.23269 -4.1997
head 4.06156 -0.79694 -1.54296
rclavicle 1.21756e-015 -9.54166e-015
rhumerus -77.0006 -44.4234 -19.7331
rradius 12.1164
rwrist 45.487
rhand -14.2013 -35.8979
rfingers 7.12502
rthumb 11.935 -65.5377
lclavicle 1.21756e-015 -9.54166e-015
lhumerus -34.1014 -0.941692 85.6751
lradius 49.7125
lwrist 8.49696
lhand -23.2921 -20.1025
lfingers 7.12502
lthumb 3.16102 9.85381
rfemur -46.7917 -1.64451 24.1323
rtibia 39.5126
rfoot -11.171 3.57037
rtoes -10.1047
lfemur -14.6032 0.27853 -18.9599
ltibia 58.462
lfoot 20.7286 -14.5962
ltoes -26.5795
